<svg viewBox="0 0 540 540" version="1.1" xmlns="http://www.w3.org/2000/svg" xmlns:xlink="http://www.w3.org/1999/xlink" xml:space="preserve" x="0" y="0" width="540" height="540">
	<defs>
		<filter id="filter1" x="-100%" y="-100%" width="300%" height="300%">
			<!-- Drop Shadow -->
			<feOffset result="out" in="SourceGraphic" dx="0" dy="0"/>
			<feColorMatrix result="out" in="out" type="matrix" values="0 0 0 0 0  0 0 0 0 0  0 0 0 0 0  0 0 0 0.651 0"/>
			<feGaussianBlur result="out" in="out" stdDeviation="10"/>
			<feBlend in="SourceGraphic" in2="out" mode="normal" result="Drop_Shadow1"/>
		</filter>
	</defs>
	<g>
		<path id="Ellipse" filter="url(#filter1)" d="M 19 270 C 19 131.3747 131.3747 19 270 19 C 408.6253 19 521 131.3747 521 270 C 521 408.6252 408.6253 521 270 521 C 131.3747 521 19 408.6252 19 270 Z" fill="#ffffff"/>
		<g>
			<path d="M 97.2794 265.4577 C 97.2794 296.8392 111.6577 324.8292 134.1264 343.0672 C 146.4291 336.8842 159.2122 331.5052 172.4064 327.0037 C 147.9221 317.5059 130.5441 293.5329 130.5441 265.4577 C 130.5441 229.0574 159.7572 199.55 195.7941 199.55 C 231.831 199.55 261.0441 229.0574 261.0441 265.4577 C 261.0441 279.5117 256.689 292.5386 249.268 303.236 L 289.87 295.084 C 292.7551 285.7259 294.3088 275.7746 294.3088 265.4577 C 294.3088 210.5004 250.203 165.95 195.7941 165.95 C 141.3852 165.95 97.2794 210.5004 97.2794 265.4577 Z" fill="#8e7443"/>
			<path d="M 327.5735 165.95 L 243.2219 311.7352 C 251.6281 311.0424 260.1344 310.6884 268.7206 310.6884 C 273.3501 310.6884 277.9529 310.7888 282.5318 310.9921 L 327.5735 233.15 L 385.8699 333.9046 C 406.0117 342.2601 425.0524 352.7043 442.7206 364.9652 L 327.5735 165.95 Z" fill="#e2c078"/>
			<path d="M 456 374.55 C 414.717 335.8229 346.795 308.55 270 308.55 C 193.2049 308.55 125.283 335.823 84 374.55 C 133.4415 343.1761 198.5977 324.1148 270 324.1148 C 341.4022 324.1148 406.5585 343.1761 456 374.55 Z" fill="#cccccc"/>
		</g>
	</g>
</svg>